<?xml version="1.0" encoding="UTF-8"?>
<!-- Generator: Adobe Illustrator 26.0.0, SVG Export Plug-In . SVG Version: 6.00 Build 0)  -->
<svg version="1.1" id="Capa_1" xmlns="http://www.w3.org/2000/svg" xmlns:xlink="http://www.w3.org/1999/xlink" x="0px" y="0px" viewBox="0 0 980 201" style="" xml:space="preserve">
<style type="text/css">
	.st0{enable-background:new    ;}
	.st1{fill:#FFFFFF;}
</style>
<g class="st0">
	<path class="st1" d="M251.5,122.5c-3.1,0-5.9-0.5-8.4-1.5c-2.5-1-4.5-2.4-6.3-4.4c-1.7-1.9-3-4.2-4-7c-0.9-2.8-1.4-5.9-1.4-9.5   c0-3.6,0.6-6.7,1.6-9.5c1.1-2.8,2.5-5.1,4.4-7c1.9-1.9,4-3.4,6.5-4.4c2.5-1,5.1-1.5,8-1.5c1.7,0,3.2,0.2,4.7,0.4   c1.4,0.2,2.6,0.6,3.7,0.9c1.1,0.3,1.9,0.6,2.6,1.1c0.6,0.4,1.1,0.6,1.5,0.8l-2.2,6.3c-1-0.6-2.4-1.2-4.1-1.8   c-1.8-0.6-3.7-0.8-5.8-0.8c-1.8,0-3.5,0.3-5,1c-1.5,0.6-2.9,1.6-4.1,2.8c-1.1,1.3-2,2.9-2.7,4.8c-0.6,1.9-1,4.2-1,6.7   c0,2.3,0.2,4.4,0.7,6.3c0.5,1.9,1.3,3.6,2.3,5c1.1,1.4,2.4,2.4,4,3.2c1.6,0.7,3.5,1.1,5.8,1.1c2.7,0,4.9-0.2,6.6-0.8s3-1.1,3.9-1.5   l2,6.3c-0.5,0.3-1.1,0.6-1.9,1c-0.8,0.3-1.8,0.6-2.9,1c-1.1,0.3-2.4,0.6-3.8,0.7C254.6,122.4,253.1,122.5,251.5,122.5z"/>
	<path class="st1" d="M288.3,95.9c-0.6-0.2-1.5-0.4-2.5-0.6c-1.1-0.2-2.3-0.3-3.7-0.3c-0.8,0-1.6,0.1-2.5,0.2   c-0.9,0.2-1.5,0.3-1.9,0.4v25.9h-7.4V90.7c1.4-0.6,3.2-1.1,5.3-1.5c2.1-0.5,4.5-0.7,7-0.7c0.5,0,1.1,0,1.7,0.1   c0.6,0.1,1.3,0.2,1.9,0.2c0.6,0.1,1.3,0.2,1.9,0.4c0.6,0.2,1.1,0.2,1.5,0.4L288.3,95.9z"/>
	<path class="st1" d="M322.3,105.3c0,2.6-0.3,4.9-1.1,7c-0.7,2.1-1.7,3.9-3.1,5.4c-1.3,1.5-2.9,2.7-4.8,3.5s-3.9,1.2-6.2,1.2   c-2.3,0-4.3-0.4-6.1-1.2c-1.9-0.8-3.4-1.9-4.7-3.5c-1.3-1.5-2.4-3.2-3.1-5.4c-0.7-2.1-1.1-4.5-1.1-7s0.4-4.9,1.1-7   c0.7-2.1,1.8-3.9,3.1-5.4c1.4-1.5,2.9-2.6,4.8-3.4c1.9-0.8,3.9-1.2,6.1-1.2s4.2,0.4,6.1,1.2c1.9,0.8,3.4,1.9,4.8,3.4   c1.3,1.5,2.4,3.2,3.1,5.4C322,100.5,322.3,102.7,322.3,105.3z M314.9,105.3c0-3.2-0.6-5.8-2-7.6s-3.2-2.8-5.6-2.8s-4.3,1-5.6,2.8   c-1.4,1.9-2,4.4-2,7.6s0.6,5.8,2,7.7c1.4,1.9,3.2,2.8,5.6,2.8s4.3-1,5.6-2.8S314.9,108.6,314.9,105.3z"/>
	<path class="st1" d="M329.2,90.2c1.4-0.4,3.2-0.8,5.4-1.1c2.3-0.4,4.7-0.6,7.5-0.6c2.6,0,4.7,0.3,6.4,1.1c1.7,0.7,3.1,1.7,4.1,3   s1.7,2.8,2.2,4.7c0.4,1.9,0.6,3.8,0.6,6v18.2h-7.2v-17.1c0-1.7-0.1-3.2-0.3-4.4c-0.2-1.2-0.6-2.2-1.1-3c-0.5-0.7-1.2-1.3-2-1.7   c-0.9-0.3-1.9-0.5-3.2-0.5c-0.9,0-1.9,0.1-2.8,0.2c-1,0.1-1.7,0.2-2.2,0.3v26.2h-7.2V90.2H329.2z"/>
	<path class="st1" d="M392.1,105.3c0,2.6-0.3,4.9-1.1,7s-1.7,3.9-3.1,5.4c-1.3,1.5-2.9,2.7-4.8,3.5s-3.9,1.2-6.2,1.2   s-4.3-0.4-6.1-1.2c-1.9-0.8-3.4-1.9-4.7-3.5c-1.3-1.5-2.4-3.2-3.1-5.4c-0.7-2.1-1.1-4.5-1.1-7s0.4-4.9,1.1-7   c0.7-2.1,1.8-3.9,3.1-5.4c1.4-1.5,2.9-2.6,4.8-3.4c1.9-0.8,3.9-1.2,6.1-1.2s4.2,0.4,6.1,1.2c1.9,0.8,3.4,1.9,4.8,3.4   c1.3,1.5,2.4,3.2,3.1,5.4C391.7,100.5,392.1,102.7,392.1,105.3z M384.7,105.3c0-3.2-0.6-5.8-2-7.6s-3.2-2.8-5.6-2.8s-4.3,1-5.6,2.8   c-1.4,1.9-2,4.4-2,7.6s0.6,5.8,2,7.7c1.4,1.9,3.2,2.8,5.6,2.8s4.3-1,5.6-2.8C384,111.2,384.7,108.6,384.7,105.3z"/>
	<path class="st1" d="M424.9,118.2c0,5.1-1.3,8.9-3.8,11.3c-2.5,2.4-6.4,3.6-11.7,3.6c-1.9,0-3.8-0.2-5.6-0.5   c-1.8-0.3-3.5-0.7-5-1.3l1.3-6.3c1.2,0.6,2.7,1,4.2,1.3c1.5,0.3,3.3,0.5,5.1,0.5c2.9,0,5-0.6,6.3-1.9c1.2-1.2,1.9-3.1,1.9-5.5v-1.2   c-0.7,0.4-1.7,0.7-2.8,1.1c-1.1,0.4-2.5,0.6-4.1,0.6c-2,0-3.8-0.3-5.5-1c-1.6-0.6-3.1-1.6-4.2-2.9c-1.2-1.3-2.1-2.8-2.8-4.8   c-0.6-1.9-1-4.1-1-6.7c0-2.4,0.3-4.5,1.1-6.5s1.7-3.7,3.1-5c1.4-1.4,3-2.5,4.9-3.2c1.9-0.8,4.1-1.1,6.6-1.1c2.4,0,4.6,0.2,6.7,0.6   c2.1,0.4,3.9,0.7,5.4,1.1L424.9,118.2L424.9,118.2z M404.7,104.5c0,3.2,0.6,5.5,2,7c1.4,1.5,3.1,2.2,5.2,2.2c1.1,0,2.3-0.2,3.2-0.5   c1.1-0.3,1.9-0.7,2.5-1.1V95.3c-0.5-0.2-1.1-0.2-1.9-0.3c-0.7-0.1-1.7-0.2-2.8-0.2c-2.7,0-4.6,0.9-6.1,2.7   C405.5,99.2,404.7,101.6,404.7,104.5z"/>
	<path class="st1" d="M451.5,95.9c-0.6-0.2-1.5-0.4-2.5-0.6c-1.1-0.2-2.3-0.3-3.7-0.3c-0.8,0-1.6,0.1-2.5,0.2   c-0.9,0.2-1.5,0.3-1.9,0.4v25.9h-7.4V90.7c1.4-0.6,3.2-1.1,5.3-1.5c2.1-0.5,4.5-0.7,7-0.7c0.5,0,1.1,0,1.7,0.1   c0.6,0.1,1.3,0.2,1.9,0.2c0.6,0.1,1.3,0.2,1.9,0.4s1.1,0.2,1.5,0.4L451.5,95.9z"/>
	<path class="st1" d="M467.7,88.4c2.4,0,4.4,0.3,6.1,0.9c1.6,0.6,2.9,1.5,3.9,2.6c1,1.1,1.7,2.4,2.1,4.1c0.4,1.6,0.6,3.3,0.6,5.2   v19.7c-1.1,0.2-2.8,0.6-5,0.9c-2.3,0.3-4.8,0.5-7.6,0.5c-1.9,0-3.6-0.2-5.2-0.6c-1.5-0.4-2.9-1-4-1.8c-1.1-0.8-1.9-1.9-2.6-3.2   c-0.6-1.3-0.9-2.9-0.9-4.9c0-1.9,0.3-3.4,1.1-4.7c0.7-1.3,1.6-2.4,2.8-3.1c1.2-0.8,2.6-1.4,4.1-1.7c1.5-0.3,3.2-0.5,5-0.5   c0.8,0,1.6,0.1,2.5,0.2c0.9,0.1,1.8,0.2,2.8,0.5v-1.2c0-0.9-0.1-1.7-0.3-2.4c-0.2-0.8-0.6-1.5-1.1-2.1c-0.5-0.6-1.1-1.1-1.9-1.4   c-0.8-0.3-1.9-0.5-3.1-0.5c-1.7,0-3.2,0.2-4.6,0.4c-1.4,0.2-2.5,0.6-3.4,0.9l-0.9-6.1c0.9-0.3,2.3-0.6,4.1-1   C463.8,88.5,465.6,88.4,467.7,88.4z M468.2,116.3c2.3,0,4-0.2,5.1-0.4v-8.3c-0.4-0.2-1-0.2-1.7-0.4c-0.7-0.2-1.6-0.2-2.5-0.2   c-0.8,0-1.6,0.1-2.4,0.2s-1.5,0.3-2.2,0.6c-0.6,0.3-1.2,0.8-1.6,1.4c-0.4,0.6-0.6,1.4-0.6,2.3c0,1.8,0.6,3,1.6,3.7   C464.9,116,466.4,116.3,468.2,116.3z"/>
	<path class="st1" d="M506.5,104.5c0-3.4-0.4-5.8-1.2-7.3c-0.8-1.5-2.4-2.3-4.6-2.3c-0.8,0-1.7,0.1-2.7,0.2c-1,0.1-1.7,0.2-2.2,0.3   v26.1h-7.2V90.2c1.4-0.4,3.2-0.8,5.5-1.1c2.3-0.4,4.6-0.6,7.1-0.6c2.2,0,3.9,0.3,5.3,0.9c1.4,0.6,2.5,1.4,3.4,2.3   c0.4-0.3,1-0.6,1.7-1.1c0.7-0.4,1.5-0.7,2.3-1.1c0.8-0.3,1.7-0.6,2.7-0.8c1-0.2,1.9-0.3,2.8-0.3c2.4,0,4.5,0.3,6,1.1   c1.5,0.7,2.8,1.7,3.7,3c0.9,1.3,1.5,2.8,1.9,4.7c0.3,1.9,0.5,3.8,0.5,6v18.3h-7.2v-17.1c0-3.4-0.4-5.8-1.2-7.3   c-0.8-1.5-2.4-2.3-4.6-2.3c-1.1,0-2.3,0.2-3.3,0.6c-1.1,0.4-1.8,0.8-2.4,1.1c0.3,1.1,0.6,2.1,0.6,3.2s0.2,2.4,0.2,3.7v17.9h-7.2   v-16.9H506.5z"/>
	<path class="st1" d="M550.4,88.4c2.4,0,4.4,0.3,6.1,0.9c1.6,0.6,2.9,1.5,3.9,2.6c1,1.1,1.7,2.4,2.1,4.1s0.6,3.3,0.6,5.2v19.7   c-1.1,0.2-2.8,0.6-5,0.9c-2.3,0.3-4.8,0.5-7.6,0.5c-1.9,0-3.6-0.2-5.2-0.6c-1.5-0.4-2.9-1-4-1.8c-1.1-0.8-1.9-1.9-2.6-3.2   c-0.6-1.3-0.9-2.9-0.9-4.9c0-1.9,0.3-3.4,1.1-4.7c0.7-1.3,1.6-2.4,2.8-3.1c1.2-0.8,2.6-1.4,4.1-1.7c1.5-0.3,3.2-0.5,5-0.5   c0.8,0,1.6,0.1,2.5,0.2c0.9,0.1,1.8,0.2,2.8,0.5v-1.2c0-0.9-0.1-1.7-0.3-2.4c-0.2-0.8-0.6-1.5-1.1-2.1c-0.5-0.6-1.1-1.1-1.9-1.4   c-0.8-0.3-1.9-0.5-3.1-0.5c-1.7,0-3.2,0.2-4.6,0.4c-1.4,0.2-2.5,0.6-3.4,0.9l-1-6.2c0.9-0.3,2.3-0.6,4.1-1   C546.5,88.5,548.4,88.4,550.4,88.4z M551,116.3c2.3,0,4-0.2,5.1-0.4v-8.3c-0.4-0.2-1-0.2-1.7-0.4c-0.7-0.2-1.6-0.2-2.5-0.2   c-0.8,0-1.6,0.1-2.4,0.2c-0.8,0.1-1.5,0.3-2.2,0.6c-0.6,0.3-1.2,0.8-1.6,1.4c-0.4,0.6-0.6,1.4-0.6,2.3c0,1.8,0.6,3,1.6,3.7   C547.7,116,549.1,116.3,551,116.3z"/>
	<path class="st1" d="M611.3,120.5c-1.5,0.5-3.2,0.9-5.4,1.2c-2.2,0.4-4.5,0.6-6.9,0.6c-2.5,0-4.7-0.4-6.7-1.1   c-1.9-0.8-3.7-1.9-5-3.4c-1.4-1.5-2.4-3.2-3.2-5.4s-1.1-4.4-1.1-7c0-2.5,0.3-4.9,0.9-7c0.6-2.1,1.5-3.9,2.8-5.4   c1.2-1.5,2.7-2.6,4.4-3.4c1.7-0.8,3.7-1.2,5.9-1.2c1.5,0,2.8,0.2,4.1,0.6c1.1,0.4,2.2,0.8,3,1.2V74.8l7.2-1.2L611.3,120.5   L611.3,120.5z M590.5,105.2c0,3.3,0.7,5.9,2.3,7.8c1.5,1.9,3.7,2.8,6.3,2.8c1.1,0,2.1-0.1,3-0.2c0.8-0.1,1.5-0.2,2-0.3V96.8   c-0.6-0.5-1.5-0.9-2.5-1.3c-1.1-0.4-2.2-0.6-3.4-0.6c-2.7,0-4.5,0.9-5.8,2.8C591.1,99.6,590.5,102.1,590.5,105.2z"/>
	<path class="st1" d="M618.2,105.5c0-2.8,0.4-5.4,1.2-7.5c0.8-2.1,1.9-3.9,3.2-5.4c1.4-1.5,2.9-2.5,4.7-3.2s3.6-1.1,5.4-1.1   c4.3,0,7.7,1.4,10.2,4.1s3.7,6.9,3.7,12.3c0,0.4,0,0.9,0,1.4c0,0.5-0.1,1-0.1,1.4h-20.7c0.2,2.6,1.1,4.6,2.7,6   c1.5,1.5,3.9,2.1,6.9,2.1c1.8,0,3.4-0.2,4.8-0.5c1.5-0.3,2.6-0.6,3.4-1.1l1,6.1c-0.4,0.2-1,0.4-1.6,0.6c-0.7,0.2-1.5,0.4-2.4,0.6   c-1,0.2-1.9,0.3-2.9,0.5s-2.1,0.2-3.2,0.2c-2.8,0-5.2-0.4-7.2-1.3c-2-0.8-3.7-2-5-3.5c-1.3-1.5-2.3-3.2-2.9-5.4   C618.6,110.2,618.2,107.9,618.2,105.5z M639.3,102.2c0-1.1-0.2-2-0.4-2.9c-0.2-0.9-0.7-1.7-1.2-2.4c-0.6-0.6-1.2-1.2-1.9-1.6   c-0.8-0.4-1.7-0.6-2.8-0.6c-1.1,0-2.1,0.2-2.9,0.6c-0.8,0.4-1.5,1-2.1,1.7c-0.6,0.7-1.1,1.5-1.4,2.4c-0.3,0.9-0.6,1.9-0.6,2.8   C625.9,102.2,639.3,102.2,639.3,102.2z"/>
	<path class="st1" d="M677.4,88.4c2.4,0,4.4,0.3,6.1,0.9c1.6,0.6,2.9,1.5,3.9,2.6c1,1.1,1.7,2.4,2.1,4.1s0.6,3.3,0.6,5.2v19.7   c-1.1,0.2-2.8,0.6-5,0.9c-2.3,0.3-4.8,0.5-7.6,0.5c-1.9,0-3.6-0.2-5.2-0.6c-1.5-0.4-2.9-1-4-1.8c-1.1-0.8-1.9-1.9-2.6-3.2   c-0.6-1.3-0.9-2.9-0.9-4.9c0-1.9,0.3-3.4,1.1-4.7c0.7-1.3,1.6-2.4,2.8-3.1c1.2-0.8,2.6-1.4,4.1-1.7c1.5-0.3,3.2-0.5,5-0.5   c0.8,0,1.6,0.1,2.5,0.2c0.9,0.1,1.8,0.2,2.8,0.5v-1.2c0-0.9-0.1-1.7-0.3-2.4c-0.2-0.8-0.6-1.5-1.1-2.1c-0.5-0.6-1.1-1.1-1.9-1.4   c-0.8-0.3-1.9-0.5-3.1-0.5c-1.7,0-3.2,0.2-4.6,0.4c-1.4,0.2-2.5,0.6-3.4,0.9l-0.9-6.1c0.9-0.3,2.3-0.6,4.1-1   C673.5,88.5,675.5,88.4,677.4,88.4z M678.1,116.3c2.3,0,4-0.2,5.1-0.4v-8.3c-0.4-0.2-1-0.2-1.7-0.4c-0.7-0.2-1.6-0.2-2.5-0.2   c-0.8,0-1.6,0.1-2.4,0.2c-0.8,0.1-1.5,0.3-2.2,0.6c-0.6,0.3-1.2,0.8-1.6,1.4c-0.4,0.6-0.6,1.4-0.6,2.3c0,1.8,0.6,3,1.6,3.7   C674.8,116,676.2,116.3,678.1,116.3z"/>
	<path class="st1" d="M696.7,105.4c0-2.4,0.3-4.6,1.1-6.7c0.7-2.1,1.8-3.9,3.1-5.4c1.4-1.5,3-2.8,4.9-3.6c1.9-0.9,4.1-1.3,6.5-1.3   c2.9,0,5.8,0.6,8.4,1.7l-1.5,6.1c-0.8-0.4-1.8-0.6-2.8-0.9s-2.2-0.4-3.4-0.4c-2.8,0-5,0.9-6.5,2.8c-1.5,1.9-2.2,4.4-2.2,7.8   c0,3.2,0.7,5.8,2.1,7.6c1.4,1.9,3.7,2.8,7.1,2.8c1.2,0,2.4-0.2,3.7-0.4c1.2-0.2,2.3-0.6,3.1-0.9l1.1,6.2c-0.8,0.4-2,0.8-3.7,1.1   c-1.6,0.3-3.3,0.5-5,0.5c-2.7,0-5-0.4-7-1.3c-1.9-0.8-3.7-2-5-3.5c-1.3-1.5-2.3-3.3-2.9-5.4C697,110,696.7,107.8,696.7,105.4z"/>
	<path class="st1" d="M725.8,80.6l7.2-1.2v9.7h11.1v6.3h-11.1v13.2c0,2.6,0.4,4.5,1.2,5.6c0.8,1.1,2.2,1.7,4.1,1.7   c1.3,0,2.5-0.2,3.5-0.4c1.1-0.3,1.9-0.6,2.4-0.8l1.2,5.9c-0.8,0.4-1.9,0.7-3.3,1.1c-1.4,0.4-2.9,0.6-4.8,0.6   c-2.3,0-4.1-0.3-5.6-0.9c-1.5-0.6-2.7-1.5-3.6-2.7c-0.9-1.1-1.5-2.6-1.9-4.3c-0.3-1.7-0.6-3.6-0.6-5.7L725.8,80.6L725.8,80.6z"/>
	<path class="st1" d="M758.8,79.7c0,1.4-0.4,2.5-1.3,3.3s-1.9,1.2-3.1,1.2c-1.2,0-2.3-0.4-3.2-1.2S750,81,750,79.7   c0-1.5,0.4-2.6,1.3-3.4c0.9-0.8,1.9-1.2,3.2-1.2c1.2,0,2.3,0.4,3.1,1.2C758.3,77.1,758.8,78.3,758.8,79.7z M758,121.5h-7.2V89.2   h7.2V121.5z"/>
	<path class="st1" d="M774.7,121.5c-2-4.2-4.1-9.1-6.2-14.6c-2.1-5.5-4.1-11.5-5.8-17.7h7.7c0.4,1.8,1,3.7,1.5,5.8s1.2,4.1,1.9,6.3   s1.4,4.1,2,6.1c0.7,1.9,1.4,3.7,1.9,5.3c0.6-1.5,1.2-3.3,1.9-5.3c0.6-1.9,1.4-4,2-6.1s1.3-4.1,1.9-6.3c0.6-2.1,1.1-4.1,1.5-5.8h7.5   c-1.7,6.3-3.7,12.2-5.8,17.7c-2.1,5.5-4.1,10.4-6.2,14.6H774.7z"/>
	<path class="st1" d="M805.7,79.7c0,1.4-0.4,2.5-1.3,3.3c-0.9,0.8-1.9,1.2-3.1,1.2c-1.2,0-2.3-0.4-3.2-1.2c-0.9-0.8-1.3-1.9-1.3-3.3   c0-1.5,0.4-2.6,1.3-3.4c0.9-0.8,1.9-1.2,3.2-1.2c1.2,0,2.3,0.4,3.1,1.2C805.3,77.1,805.7,78.3,805.7,79.7z M805,121.5h-7.2V89.2   h7.2V121.5z"/>
	<path class="st1" d="M840.1,120.5c-1.5,0.5-3.2,0.9-5.4,1.2c-2.2,0.4-4.5,0.6-6.9,0.6c-2.5,0-4.7-0.4-6.7-1.1   c-1.9-0.8-3.7-1.9-5-3.4c-1.4-1.5-2.4-3.2-3.2-5.4s-1.1-4.4-1.1-7c0-2.5,0.3-4.9,0.9-7c0.6-2.1,1.5-3.9,2.8-5.4   c1.2-1.5,2.7-2.6,4.4-3.4c1.7-0.8,3.7-1.2,5.9-1.2c1.5,0,2.8,0.2,4.1,0.6c1.1,0.4,2.2,0.8,3,1.2V74.8l7.2-1.2L840.1,120.5   L840.1,120.5z M819.3,105.2c0,3.3,0.7,5.9,2.3,7.8s3.7,2.8,6.3,2.8c1.1,0,2.1-0.1,3-0.2c0.8-0.1,1.5-0.2,2-0.3V96.8   c-0.6-0.5-1.5-0.9-2.5-1.3c-1.1-0.4-2.2-0.6-3.4-0.6c-2.7,0-4.5,0.9-5.8,2.8C819.9,99.6,819.3,102.1,819.3,105.2z"/>
	<path class="st1" d="M859.2,88.4c2.4,0,4.4,0.3,6.1,0.9c1.6,0.6,2.9,1.5,3.9,2.6c1,1.1,1.7,2.4,2.1,4.1s0.6,3.3,0.6,5.2v19.7   c-1.1,0.2-2.8,0.6-5,0.9c-2.3,0.3-4.8,0.5-7.6,0.5c-1.9,0-3.6-0.2-5.2-0.6c-1.5-0.4-2.9-1-4-1.8c-1.1-0.8-1.9-1.9-2.6-3.2   c-0.6-1.3-0.9-2.9-0.9-4.9c0-1.9,0.3-3.4,1.1-4.7c0.7-1.3,1.6-2.4,2.8-3.1c1.2-0.8,2.6-1.4,4.1-1.7c1.5-0.3,3.2-0.5,5-0.5   c0.8,0,1.6,0.1,2.5,0.2c0.9,0.1,1.8,0.2,2.8,0.5v-1.2c0-0.9-0.1-1.7-0.3-2.4c-0.2-0.8-0.6-1.5-1.1-2.1c-0.5-0.6-1.1-1.1-1.9-1.4   c-0.8-0.3-1.9-0.5-3.1-0.5c-1.7,0-3.2,0.2-4.6,0.4c-1.4,0.2-2.5,0.6-3.4,0.9l-0.9-6.1c0.9-0.3,2.3-0.6,4.1-1   C855.3,88.5,857.2,88.4,859.2,88.4z M859.8,116.3c2.3,0,4-0.2,5.1-0.4v-8.3c-0.4-0.2-1-0.2-1.7-0.4c-0.7-0.2-1.6-0.2-2.5-0.2   c-0.8,0-1.6,0.1-2.4,0.2c-0.8,0.1-1.5,0.3-2.2,0.6c-0.6,0.3-1.2,0.8-1.6,1.4c-0.4,0.6-0.6,1.4-0.6,2.3c0,1.8,0.6,3,1.6,3.7   C856.5,116,858,116.3,859.8,116.3z"/>
	<path class="st1" d="M906.7,120.5c-1.5,0.5-3.2,0.9-5.4,1.2c-2.2,0.4-4.5,0.6-6.9,0.6c-2.5,0-4.7-0.4-6.7-1.1   c-1.9-0.8-3.7-1.9-5-3.4c-1.4-1.5-2.4-3.2-3.2-5.4s-1.1-4.4-1.1-7c0-2.5,0.3-4.9,0.9-7c0.6-2.1,1.5-3.9,2.8-5.4   c1.2-1.5,2.7-2.6,4.4-3.4c1.7-0.8,3.7-1.2,5.9-1.2c1.5,0,2.8,0.2,4.1,0.6c1.1,0.4,2.2,0.8,3,1.2V74.8l7.2-1.2L906.7,120.5   L906.7,120.5z M885.9,105.2c0,3.3,0.7,5.9,2.3,7.8c1.5,1.9,3.7,2.8,6.3,2.8c1.1,0,2.1-0.1,3-0.2c0.8-0.1,1.5-0.2,2-0.3V96.8   c-0.6-0.5-1.5-0.9-2.5-1.3c-1.1-0.4-2.2-0.6-3.4-0.6c-2.7,0-4.5,0.9-5.8,2.8C886.5,99.6,885.9,102.1,885.9,105.2z"/>
	<path class="st1" d="M913.6,105.5c0-2.8,0.4-5.4,1.2-7.5c0.8-2.1,1.9-3.9,3.2-5.4c1.4-1.5,2.9-2.5,4.7-3.2c1.8-0.7,3.6-1.1,5.4-1.1   c4.3,0,7.7,1.4,10.2,4.1c2.4,2.8,3.7,6.9,3.7,12.3c0,0.4,0,0.9,0,1.4c0,0.5-0.1,1-0.1,1.4h-20.7c0.2,2.6,1.1,4.6,2.7,6   c1.5,1.5,3.9,2.1,6.9,2.1c1.8,0,3.4-0.2,4.8-0.5c1.5-0.3,2.6-0.6,3.4-1.1l1,6.1c-0.4,0.2-1,0.4-1.6,0.6c-0.7,0.2-1.5,0.4-2.4,0.6   c-1,0.2-1.9,0.3-2.9,0.5c-1.1,0.2-2.1,0.2-3.2,0.2c-2.8,0-5.2-0.4-7.2-1.3c-2-0.8-3.7-2-5-3.5c-1.3-1.5-2.3-3.2-2.9-5.4   C913.9,110.2,913.6,107.9,913.6,105.5z M934.7,102.2c0-1.1-0.2-2-0.4-2.9c-0.2-0.9-0.7-1.7-1.2-2.4c-0.6-0.6-1.2-1.2-1.9-1.6   c-0.8-0.4-1.7-0.6-2.8-0.6c-1.1,0-2.1,0.2-2.9,0.6c-0.8,0.4-1.5,1-2.1,1.7c-0.6,0.7-1.1,1.5-1.4,2.4c-0.3,0.9-0.6,1.9-0.6,2.8   C921.3,102.2,934.7,102.2,934.7,102.2z"/>
	<path class="st1" d="M956.9,116.1c1.9,0,3.3-0.2,4.2-0.7c0.9-0.5,1.3-1.3,1.3-2.4c0-1.1-0.5-1.9-1.4-2.7c-1-0.7-2.5-1.5-4.6-2.3   c-1.3-0.5-2.5-1.1-3.7-1.5c-1.1-0.6-2-1.2-2.8-1.9c-0.8-0.7-1.5-1.6-1.9-2.7c-0.5-1.1-0.6-2.4-0.6-3.9c0-3,1.1-5.3,3.2-7   c2.1-1.7,5-2.6,8.6-2.6c1.9,0,3.6,0.2,5.3,0.5c1.7,0.3,2.9,0.7,3.8,1.1L967,96c-0.8-0.4-1.8-0.7-3.1-1.1c-1.2-0.3-2.7-0.5-4.3-0.5   c-1.5,0-2.7,0.2-3.6,0.8c-0.9,0.5-1.4,1.3-1.4,2.4c0,0.6,0.1,1,0.2,1.5c0.2,0.4,0.5,0.8,0.9,1.1c0.4,0.3,1.1,0.7,1.7,1.1   c0.7,0.3,1.6,0.7,2.7,1.1c1.7,0.6,3.2,1.3,4.4,1.9c1.2,0.6,2.2,1.4,3,2.2c0.8,0.8,1.4,1.7,1.7,2.8s0.6,2.3,0.6,3.7   c0,3.1-1.1,5.4-3.3,7c-2.2,1.6-5.4,2.4-9.5,2.4c-2.8,0-5-0.2-6.7-0.7c-1.7-0.5-2.8-0.9-3.6-1.1l1.3-6.3c1.1,0.5,2.4,0.9,3.9,1.3   C953.3,116,955,116.1,956.9,116.1z"/>
</g>
<g>
	<path class="st1" d="M121,14.6h5.6c1.1,0,2,0.9,2,2v21c0,1.1-0.9,2-2,2H121c-1.1,0-2-0.9-2-2v-21C119,15.6,119.9,14.6,121,14.6z"/>
	<path class="st1" d="M193.8,145.1c0,22.6-18.4,41-41.1,40.9c-22.6,0-41-18.4-40.9-41.1c0-22.6,18.4-41,41.1-40.9l0,0   C175.6,104.2,193.8,122.5,193.8,145.1z M153.1,178.4c18.3-0.2,33-15.2,32.8-33.6c-0.2-18.3-15.2-33-33.6-32.8   c-18.2,0.2-32.9,15.1-32.8,33.3c0.1,18.3,14.9,33.1,33.2,33.1C152.9,178.4,153,178.4,153.1,178.4L153.1,178.4z"/>
	<path class="st1" d="M170.7,127.1l5.9,5.6L145.2,164l-15.6-16.6l4.8-5.3l9.7,12.4L170.7,127.1z"/>
	<path class="st1" d="M36.1,70.4h17.6c1,0,1.8,0.8,1.8,1.8v15.6c0,1-0.8,1.8-1.8,1.8H36.1c-1,0-1.8-0.8-1.8-1.8V72.2   C34.3,71.3,35.2,70.4,36.1,70.4z"/>
	<path class="st1" d="M63.1,70.4h17.6c1,0,1.8,0.8,1.8,1.8v15.6c0,1-0.8,1.8-1.8,1.8H63.1c-1,0-1.8-0.8-1.8-1.8V72.2   C61.3,71.3,62.1,70.4,63.1,70.4z"/>
	<path class="st1" d="M90,70.4h17.6c1,0,1.8,0.8,1.8,1.8v15.6c0,1-0.8,1.8-1.8,1.8H90c-1,0-1.8-0.8-1.8-1.8V72.2   C88.2,71.3,89,70.4,90,70.4z"/>
	<path class="st1" d="M116.9,70.4h17.6c1,0,1.8,0.8,1.8,1.8v15.6c0,1-0.8,1.8-1.8,1.8h-17.6c-1,0-1.8-0.8-1.8-1.8V72.2   C115.1,71.3,116,70.4,116.9,70.4z"/>
	<path class="st1" d="M36.1,97.4h17.6c1,0,1.8,0.8,1.8,1.8v15.6c0,1-0.8,1.8-1.8,1.8H36.1c-1,0-1.8-0.8-1.8-1.8V99.2   C34.3,98.2,35.2,97.4,36.1,97.4z"/>
	<path class="st1" d="M63.1,97.4h17.6c1,0,1.8,0.8,1.8,1.8v15.6c0,1-0.8,1.8-1.8,1.8H63.1c-1,0-1.8-0.8-1.8-1.8V99.2   C61.3,98.2,62.1,97.4,63.1,97.4z"/>
	<path class="st1" d="M90,97.4h17.6c1,0,1.8,0.8,1.8,1.8v15.6c0,1-0.8,1.8-1.8,1.8H90c-1,0-1.8-0.8-1.8-1.8V99.2   C88.2,98.2,89,97.4,90,97.4z"/>
	<path class="st1" d="M36.1,124.3h17.6c1,0,1.8,0.8,1.8,1.8v15.6c0,1-0.8,1.8-1.8,1.8H36.1c-1,0-1.8-0.8-1.8-1.8v-15.6   C34.3,125.1,35.2,124.3,36.1,124.3z"/>
	<path class="st1" d="M63.1,124.3h17.6c1,0,1.8,0.8,1.8,1.8v15.6c0,1-0.8,1.8-1.8,1.8H63.1c-1,0-1.8-0.8-1.8-1.8v-15.6   C61.3,125.1,62.1,124.3,63.1,124.3z"/>
	<path class="st1" d="M45.9,14.6h5.6c1.1,0,2,0.9,2,2v21c0,1.1-0.9,2-2,2h-5.6c-1.1,0-2-0.9-2-2v-21C44,15.6,44.9,14.6,45.9,14.6z"/>
	<path class="st1" d="M156.9,48.7c0-17.7-6.6-22.1-23.5-21.4h-2.7v9c0,4.8-3.3,5.5-4.9,5.5h-3.9c-1.5,0-5.5-0.3-5.5-5.5v-9.1   c-0.6,0,1.4,0,0.7,0H85.5c-7.7,0-16.4,0-29.8,0l-0.2,10.8c0,2.7-3.3,4.1-5,4.1h-3.7c-1.6,0-5-0.9-5-4.3l-0.2-10.6h-0.7   c-19-1.1-25.6,3.4-25.6,22.2c-0.2,30.8-0.2,61.7-0.2,92.4c0,13.2,5.6,18.6,18.8,18.6c20.6,0.1,41.1,0,61.7,0h8.7   c-0.2-3.2-0.3-5.3-0.4-7.9c-23.7,0-46.8,0-69.9,0c-9,0-11.1-2.2-11.2-11.1c0-24.9,0-50,0-75c0-1.8,0.3-3.6,0.3-5.6H149v34.2h7.8   C156.9,79.5,156.9,64.1,156.9,48.7z"/>
</g>
</svg>