<?xml version="1.0" encoding="UTF-8"?>
<!-- Generator: Adobe Illustrator 26.0.0, SVG Export Plug-In . SVG Version: 6.00 Build 0)  -->
<svg version="1.1" id="Capa_1" xmlns="http://www.w3.org/2000/svg" xmlns:xlink="http://www.w3.org/1999/xlink" x="0px" y="0px" viewBox="0 0 918.3 201" style="" xml:space="preserve">
<style type="text/css">
	.st0{enable-background:new    ;}
	.st1{fill:#FFFFFF;}
</style>
<g class="st0">
	<path class="st1" d="M254.8,96.1c-4.3,0-7.6,1.3-9.9,4c-2.3,2.7-3.4,6.4-3.4,11.1c0,2.3,0.3,4.3,0.8,6.2s1.3,3.5,2.4,4.8   s2.4,2.4,4,3.1c1.6,0.7,3.5,1.1,5.6,1.1c1.3,0,2.5,0,3.4-0.2s1.7-0.2,2.3-0.4v-15h7.6v20.1c-1,0.4-2.8,0.8-5.3,1.3   s-5.4,0.7-8.6,0.7c-3,0-5.8-0.5-8.3-1.5s-4.6-2.4-6.4-4.2c-1.8-1.9-3.1-4.1-4.1-6.8s-1.4-5.8-1.4-9.3s0.5-6.6,1.6-9.3   c1.1-2.7,2.5-5,4.4-6.9s4-3.3,6.5-4.3s5.2-1.4,8-1.4c1.9,0,3.7,0.1,5.2,0.4s2.8,0.6,3.9,0.9s2,0.7,2.7,1c0.7,0.4,1.2,0.6,1.5,0.8   l-2.3,6.2c-1.2-0.7-2.7-1.3-4.5-1.8C258.7,96.3,256.8,96.1,254.8,96.1z"/>
	<path class="st1" d="M301.5,131.3c-1.4,0.4-3.2,0.7-5.5,1.1c-2.3,0.4-4.7,0.6-7.4,0.6c-2.5,0-4.7-0.4-6.4-1.1   c-1.7-0.7-3.1-1.7-4.1-3s-1.8-2.8-2.2-4.6c-0.4-1.8-0.7-3.8-0.7-5.9v-17.7h7.3v16.6c0,3.4,0.5,5.8,1.5,7.2c1,1.5,2.7,2.2,5.2,2.2   c0.9,0,1.8,0,2.8-0.1s1.7-0.2,2.2-0.3v-25.6h7.3V131.3z"/>
	<path class="st1" d="M322.6,87.7l-9.8,9.5l-3.6-3.3l8.9-10.6L322.6,87.7z M317.6,132.2h-7.3v-31.6h7.3V132.2z"/>
	<path class="st1" d="M336.8,99.8c2.4,0,4.4,0.3,6.1,0.9s3,1.5,4,2.5c1,1.1,1.7,2.4,2.1,4s0.6,3.3,0.6,5.1v19.2   c-1.1,0.2-2.8,0.5-5.1,0.9c-2.3,0.3-4.8,0.5-7.7,0.5c-1.9,0-3.6-0.2-5.2-0.5s-2.9-0.9-4-1.8c-1.1-0.8-2-1.9-2.6-3.1   c-0.6-1.3-0.9-2.9-0.9-4.8c0-1.8,0.4-3.3,1.1-4.6c0.7-1.2,1.7-2.3,2.9-3.1s2.6-1.3,4.2-1.7c1.6-0.3,3.3-0.5,5-0.5   c0.8,0,1.7,0.1,2.5,0.2c0.9,0.1,1.8,0.3,2.8,0.5v-1.2c0-0.8-0.1-1.7-0.3-2.4c-0.2-0.8-0.6-1.4-1.1-2s-1.2-1-2-1.4   c-0.8-0.3-1.9-0.5-3.1-0.5c-1.7,0-3.2,0.1-4.7,0.4c-1.4,0.2-2.6,0.5-3.4,0.8l-0.9-5.9c0.9-0.3,2.3-0.6,4-1   C332.9,100,334.7,99.8,336.8,99.8z M337.4,127.1c2.3,0,4-0.1,5.1-0.4v-8.1c-0.4-0.1-1-0.2-1.8-0.4c-0.8-0.1-1.6-0.2-2.5-0.2   c-0.8,0-1.6,0.1-2.4,0.2c-0.8,0.1-1.6,0.3-2.2,0.7c-0.7,0.3-1.2,0.8-1.6,1.4c-0.4,0.6-0.6,1.3-0.6,2.2c0,1.7,0.5,2.9,1.6,3.6   C334,126.8,335.5,127.1,337.4,127.1z"/>
	<path class="st1" d="M398.1,131.3c-1.4,0.4-3.3,0.8-5.5,1.2s-4.5,0.5-6.9,0.5c-2.5,0-4.7-0.4-6.7-1.1c-2-0.8-3.7-1.9-5-3.3   c-1.4-1.4-2.5-3.2-3.2-5.2s-1.1-4.3-1.1-6.9c0-2.5,0.3-4.8,0.9-6.8s1.5-3.8,2.7-5.2c1.2-1.5,2.7-2.6,4.4-3.4c1.7-0.8,3.7-1.2,6-1.2   c1.5,0,2.9,0.2,4,0.5s2.2,0.8,3,1.2V86.4l7.3-1.2v46.1H398.1z M377.1,116.3c0,3.2,0.8,5.7,2.3,7.6c1.5,1.8,3.6,2.7,6.3,2.7   c1.2,0,2.2,0,3-0.2c0.8-0.1,1.5-0.2,2-0.3V108c-0.6-0.4-1.5-0.9-2.6-1.2c-1.1-0.4-2.2-0.6-3.4-0.6c-2.7,0-4.6,0.9-5.8,2.7   C377.7,110.8,377.1,113.2,377.1,116.3z"/>
	<path class="st1" d="M405,116.6c0-2.8,0.4-5.2,1.2-7.3s1.9-3.8,3.3-5.2c1.4-1.4,2.9-2.4,4.7-3.1c1.8-0.7,3.6-1.1,5.4-1.1   c4.3,0,7.7,1.4,10.2,4c2.4,2.7,3.7,6.7,3.7,12.1c0,0.4,0,0.9,0,1.4s-0.1,1-0.1,1.4h-20.8c0.2,2.5,1.1,4.5,2.7,5.9s3.9,2.1,6.9,2.1   c1.8,0,3.4-0.2,4.9-0.5s2.6-0.7,3.5-1l1,6c-0.4,0.2-1,0.4-1.7,0.6c-0.7,0.2-1.5,0.4-2.4,0.6c-0.9,0.2-1.9,0.3-2.9,0.5   c-1,0.1-2.1,0.2-3.2,0.2c-2.8,0-5.2-0.4-7.2-1.2c-2.1-0.8-3.7-2-5.1-3.4c-1.3-1.5-2.3-3.2-3-5.2C405.3,121.1,405,119,405,116.6z    M426.2,113.3c0-1-0.1-2-0.4-2.9s-0.7-1.7-1.2-2.4c-0.5-0.7-1.2-1.2-2-1.6s-1.7-0.6-2.8-0.6c-1.1,0-2.1,0.2-3,0.6s-1.6,1-2.1,1.7   c-0.6,0.7-1,1.5-1.4,2.4c-0.3,0.9-0.5,1.8-0.7,2.7h13.6V113.3z"/>
	<path class="st1" d="M464.6,99.8c2.4,0,4.4,0.3,6.1,0.9s3,1.5,4,2.5c1,1.1,1.7,2.4,2.1,4s0.6,3.3,0.6,5.1v19.2   c-1.1,0.2-2.8,0.5-5.1,0.9c-2.3,0.3-4.8,0.5-7.7,0.5c-1.9,0-3.6-0.2-5.2-0.5s-2.9-0.9-4-1.8c-1.1-0.8-2-1.9-2.6-3.1   c-0.6-1.3-0.9-2.9-0.9-4.8c0-1.8,0.4-3.3,1.1-4.6c0.7-1.2,1.7-2.3,2.9-3.1s2.6-1.3,4.2-1.7c1.6-0.3,3.3-0.5,5-0.5   c0.8,0,1.7,0.1,2.5,0.2c0.9,0.1,1.8,0.3,2.8,0.5v-1.2c0-0.8-0.1-1.7-0.3-2.4c-0.2-0.8-0.6-1.4-1.1-2s-1.2-1-2-1.4   c-0.8-0.3-1.9-0.5-3.1-0.5c-1.7,0-3.2,0.1-4.7,0.4c-1.4,0.2-2.6,0.5-3.4,0.8l-0.9-5.9c0.9-0.3,2.3-0.6,4-1   C460.7,100,462.6,99.8,464.6,99.8z M465.3,127.1c2.3,0,4-0.1,5.1-0.4v-8.1c-0.4-0.1-1-0.2-1.8-0.4c-0.8-0.1-1.6-0.2-2.5-0.2   c-0.8,0-1.6,0.1-2.4,0.2c-0.8,0.1-1.6,0.3-2.2,0.7c-0.7,0.3-1.2,0.8-1.6,1.4c-0.4,0.6-0.6,1.3-0.6,2.2c0,1.7,0.5,2.9,1.6,3.6   C461.9,126.8,463.4,127.1,465.3,127.1z"/>
	<path class="st1" d="M514.2,116.5c0,2.4-0.3,4.6-0.9,6.6c-0.6,2-1.5,3.7-2.7,5.2s-2.6,2.6-4.4,3.4c-1.8,0.8-3.7,1.2-6,1.2   c-1.5,0-2.9-0.2-4.1-0.5c-1.2-0.4-2.3-0.8-3.1-1.2v12.3h-7.3v-41.7c1.5-0.4,3.3-0.8,5.5-1.1s4.5-0.5,6.9-0.5c2.5,0,4.7,0.4,6.7,1.1   c2,0.8,3.7,1.9,5,3.3s2.5,3.2,3.2,5.2C513.9,111.6,514.2,113.9,514.2,116.5z M506.8,116.6c0-3.3-0.7-5.8-2.2-7.6s-3.8-2.7-7.1-2.7   c-0.7,0-1.4,0-2.1,0.1s-1.5,0.2-2.2,0.4v18.1c0.6,0.4,1.5,0.9,2.6,1.2c1.1,0.4,2.2,0.6,3.4,0.6c2.7,0,4.6-0.9,5.8-2.7   C506.1,122.1,506.8,119.6,506.8,116.6z"/>
	<path class="st1" d="M539.2,107.2c-0.6-0.2-1.4-0.4-2.5-0.6s-2.3-0.3-3.7-0.3c-0.8,0-1.7,0.1-2.6,0.2c-0.9,0.2-1.5,0.3-1.9,0.4   v25.3h-7.3v-30.1c1.4-0.5,3.2-1,5.3-1.5s4.5-0.7,7-0.7c0.5,0,1,0,1.7,0.1c0.6,0.1,1.3,0.1,1.9,0.2c0.6,0.1,1.3,0.2,1.9,0.4   c0.6,0.1,1.1,0.3,1.4,0.4L539.2,107.2z"/>
	<path class="st1" d="M543.2,116.6c0-2.8,0.4-5.2,1.2-7.3s1.9-3.8,3.3-5.2c1.4-1.4,2.9-2.4,4.7-3.1s3.6-1.1,5.4-1.1   c4.3,0,7.7,1.4,10.2,4c2.4,2.7,3.7,6.7,3.7,12.1c0,0.4,0,0.9,0,1.4s-0.1,1-0.1,1.4h-20.8c0.2,2.5,1.1,4.5,2.7,5.9   c1.6,1.4,3.9,2.1,6.9,2.1c1.8,0,3.4-0.2,4.9-0.5s2.6-0.7,3.5-1l1,6c-0.4,0.2-1,0.4-1.7,0.6c-0.7,0.2-1.5,0.4-2.4,0.6   c-0.9,0.2-1.9,0.3-2.9,0.5c-1,0.1-2.1,0.2-3.2,0.2c-2.8,0-5.2-0.4-7.2-1.2c-2.1-0.8-3.7-2-5.1-3.4c-1.3-1.5-2.3-3.2-3-5.2   C543.5,121.1,543.2,119,543.2,116.6z M564.4,113.3c0-1-0.1-2-0.4-2.9c-0.3-0.9-0.7-1.7-1.2-2.4c-0.5-0.7-1.2-1.2-2-1.6   s-1.7-0.6-2.8-0.6s-2.1,0.2-3,0.6s-1.6,1-2.1,1.7c-0.6,0.7-1,1.5-1.4,2.4c-0.3,0.9-0.5,1.8-0.7,2.7h13.6V113.3z"/>
	<path class="st1" d="M578.8,101.7c1.4-0.4,3.2-0.8,5.5-1.1s4.8-0.5,7.5-0.5c2.6,0,4.7,0.4,6.5,1.1c1.7,0.7,3.1,1.7,4.1,3   s1.8,2.8,2.2,4.6s0.6,3.8,0.6,5.9v17.8h-7.3v-16.6c0-1.7-0.1-3.1-0.3-4.3s-0.6-2.2-1.1-2.9s-1.2-1.3-2.1-1.6   c-0.9-0.3-1.9-0.5-3.2-0.5c-0.9,0-1.9,0.1-2.9,0.2s-1.8,0.2-2.2,0.3v25.5h-7.3V101.7z"/>
	<path class="st1" d="M640.3,131.3c-1.4,0.4-3.3,0.8-5.5,1.2s-4.5,0.5-6.9,0.5c-2.5,0-4.7-0.4-6.7-1.1c-2-0.8-3.7-1.9-5-3.3   c-1.4-1.4-2.5-3.2-3.2-5.2s-1.1-4.3-1.1-6.9c0-2.5,0.3-4.8,0.9-6.8c0.6-2,1.5-3.8,2.7-5.2c1.2-1.5,2.7-2.6,4.4-3.4s3.7-1.2,6-1.2   c1.5,0,2.9,0.2,4,0.5s2.2,0.8,3,1.2V86.4l7.3-1.2L640.3,131.3L640.3,131.3z M619.3,116.3c0,3.2,0.8,5.7,2.3,7.6   c1.5,1.8,3.6,2.7,6.3,2.7c1.2,0,2.2,0,3-0.2c0.8-0.1,1.5-0.2,2-0.3V108c-0.6-0.4-1.5-0.9-2.6-1.2c-1.1-0.4-2.2-0.6-3.4-0.6   c-2.7,0-4.6,0.9-5.8,2.7C619.9,110.8,619.3,113.2,619.3,116.3z"/>
	<path class="st1" d="M657.1,91.4c0,1.4-0.4,2.5-1.3,3.3c-0.9,0.8-1.9,1.2-3.1,1.2c-1.2,0-2.3-0.4-3.2-1.2c-0.9-0.8-1.3-1.9-1.3-3.3   s0.4-2.5,1.3-3.3c0.9-0.8,2-1.2,3.2-1.2s2.3,0.4,3.1,1.2C656.7,88.9,657.1,90,657.1,91.4z M656.3,132.2H649v-31.6h7.3V132.2z"/>
	<path class="st1" d="M687.1,105.8c-0.8,0.8-1.9,2-3.2,3.6c-1.3,1.5-2.7,3.2-4.2,5.1c-1.5,1.9-3,3.8-4.5,5.9c-1.5,2-2.9,4-4.1,5.8   h16.3v6.1h-25.1v-4.5c0.9-1.6,2-3.4,3.3-5.3c1.3-1.9,2.7-3.8,4.1-5.7c1.4-1.9,2.8-3.7,4.2-5.5c1.4-1.7,2.6-3.2,3.7-4.5H663v-6.1h24   L687.1,105.8L687.1,105.8z"/>
	<path class="st1" d="M704.2,99.8c2.4,0,4.4,0.3,6.1,0.9c1.7,0.6,3,1.5,4,2.5c1,1.1,1.7,2.4,2.1,4c0.4,1.6,0.6,3.3,0.6,5.1v19.2   c-1.1,0.2-2.8,0.5-5.1,0.9c-2.3,0.3-4.8,0.5-7.7,0.5c-1.9,0-3.6-0.2-5.2-0.5s-2.9-0.9-4-1.8c-1.1-0.8-2-1.9-2.6-3.1   c-0.6-1.3-0.9-2.9-0.9-4.8c0-1.8,0.4-3.3,1.1-4.6c0.7-1.2,1.7-2.3,2.9-3.1s2.6-1.3,4.2-1.7c1.6-0.3,3.3-0.5,5-0.5   c0.8,0,1.7,0.1,2.5,0.2c0.9,0.1,1.8,0.3,2.8,0.5v-1.2c0-0.8-0.1-1.7-0.3-2.4c-0.2-0.8-0.6-1.4-1.1-2s-1.2-1-2-1.4   c-0.8-0.3-1.9-0.5-3.1-0.5c-1.7,0-3.2,0.1-4.7,0.4c-1.4,0.2-2.6,0.5-3.4,0.8l-0.9-5.9c0.9-0.3,2.3-0.6,4-1   C700.3,100,702.2,99.8,704.2,99.8z M704.8,127.1c2.3,0,4-0.1,5.1-0.4v-8.1c-0.4-0.1-1-0.2-1.8-0.4c-0.8-0.1-1.6-0.2-2.5-0.2   c-0.8,0-1.6,0.1-2.4,0.2c-0.8,0.1-1.6,0.3-2.2,0.7c-0.7,0.3-1.2,0.8-1.6,1.4c-0.4,0.6-0.6,1.3-0.6,2.2c0,1.7,0.5,2.9,1.6,3.6   C701.5,126.8,702.9,127.1,704.8,127.1z"/>
	<path class="st1" d="M721.3,143.5c-0.5,0-1.3-0.1-2.2-0.2s-1.8-0.3-2.5-0.6l1-6c0.9,0.3,2,0.4,3.2,0.4c1.7,0,2.9-0.5,3.6-1.5   c0.7-1,1-2.5,1-4.4v-30.6h7.3v30.7c0,4.1-1,7.1-2.9,9.1C727.7,142.5,724.9,143.5,721.3,143.5z M733.4,91.4c0,1.4-0.4,2.5-1.3,3.3   c-0.9,0.8-1.9,1.2-3.1,1.2c-1.2,0-2.3-0.4-3.2-1.2c-0.9-0.8-1.3-1.9-1.3-3.3s0.4-2.5,1.3-3.3c0.9-0.8,2-1.2,3.2-1.2   s2.3,0.4,3.1,1.2C733,88.9,733.4,90,733.4,91.4z"/>
	<path class="st1" d="M739.6,116.6c0-2.8,0.4-5.2,1.2-7.3s1.9-3.8,3.3-5.2c1.4-1.4,2.9-2.4,4.7-3.1s3.6-1.1,5.4-1.1   c4.3,0,7.7,1.4,10.2,4c2.4,2.7,3.7,6.7,3.7,12.1c0,0.4,0,0.9,0,1.4s-0.1,1-0.1,1.4h-20.8c0.2,2.5,1.1,4.5,2.7,5.9   c1.6,1.4,3.9,2.1,6.9,2.1c1.8,0,3.4-0.2,4.9-0.5s2.6-0.7,3.5-1l1,6c-0.4,0.2-1,0.4-1.7,0.6c-0.7,0.2-1.5,0.4-2.4,0.6   c-0.9,0.2-1.9,0.3-2.9,0.5c-1,0.1-2.1,0.2-3.2,0.2c-2.8,0-5.2-0.4-7.2-1.2c-2.1-0.8-3.7-2-5.1-3.4c-1.3-1.5-2.3-3.2-3-5.2   C739.9,121.1,739.6,119,739.6,116.6z M760.8,113.3c0-1-0.1-2-0.4-2.9c-0.3-0.9-0.7-1.7-1.2-2.4c-0.5-0.7-1.2-1.2-2-1.6   s-1.7-0.6-2.8-0.6s-2.1,0.2-3,0.6s-1.6,1-2.1,1.7c-0.6,0.7-1,1.5-1.4,2.4c-0.3,0.9-0.5,1.8-0.7,2.7h13.6V113.3z"/>
</g>
<g>
	<path class="st1" d="M43.8,27.2c-1.4-8,2.6-9.3,8.5-8.6c2.6,0.2,5.2,0.2,7.8,0C63.6,7.8,70,0.5,81.9,0.7c11.5,0.2,18,7.1,20.7,16.8   c6.2,3.7,17.8-5.1,17.5,9.7c6.7,0,13-0.3,19.3,0.2c1.7,0.1,4.6,2.4,4.6,3.7c0.4,17.8,0.2,35.6,0.2,53.8l-6.3-1.1V34.2h-17.5   c-2.2,12.3-2.2,12.3-15.2,12.3H52.8c-8.7,0-8.7,0-9.1-8.5c0-1.1-0.3-2.3-0.4-3.7H25.9v149.1h111.2c2.1-3.9-2.3-11.5,6.7-10.5   c2.5,17.5,2.5,17.5-14.5,17.5h-102c-8.4,0-8.4,0-8.4-8.1c0-49,0-98,0-147c0-7.9,0-7.9,7.9-7.9L43.8,27.2z M50.5,39.6h62.3V25   c-2.5-0.2-4.8-0.2-7.3,0c-5.6,0.7-9.1-0.5-10-7.2c-0.9-6.2-6.6-10.2-12.7-10.7c-6.1-0.4-13.4,2.8-14.1,8.5c-1.3,10-7.3,10-14.5,9.3   c-1.2,0-2.5,0.1-3.7,0.3V39.6z"/>
	<path class="st1" d="M154.9,157.4c8.5,10.5,17.2,20.5,25.2,31.1c1.6,2.1,2.1,5.9,1.4,8.5c-0.4,1.6-4.3,3.6-6.1,3.2   c-2.5-0.6-5-3-6.4-5.2c-6.8-10.9-13.1-22.1-19.6-33.1c-27.2,7.2-44.5,1.2-53-18.3c-7.4-17.1-1.1-37,14.9-46.7   c15.6-9.5,36.4-6,47.9,7.9C170.1,117.8,172.9,139.5,154.9,157.4z M161.1,128.6c0.1-16.7-13.3-30.3-30.1-30.4c-0.3,0-0.4,0-0.7,0   c-16.9,0.1-30.5,13.8-30.5,30.7c0.1,16.9,13.8,30.5,30.7,30.5C147.3,159.3,161.2,145.5,161.1,128.6L161.1,128.6L161.1,128.6z"/>
	<path class="st1" d="M99.7,70.9c6.3,0,12.7-0.2,19,0.2c1.6,0.1,3.2,2,4.7,3.2c-1.7,1.1-3.3,2.9-4.9,3c-12.9,0.3-25.7,0.3-38.6,0   c-1.6,0-3.1-2-4.7-3.2c1.6-1.1,3.2-2.9,4.9-3C86.7,70.7,93.2,70.9,99.7,70.9z"/>
	<path class="st1" d="M51.6,75.5c3.5-3.7,6.3-7.1,9.5-10c1.1-1,3.4-0.6,5.2-0.9c-0.2,1.8,0.2,4-0.7,5.2c-1.9,2.6-4.7,4.8-7.1,7.2   c-7.8,7.8-8.6,7.8-15.3-0.7c-1-1.2-0.7-3.4-1-5.2c1.9,0.3,3.8,0.3,5.6,0.9C49.1,72.6,49.8,73.9,51.6,75.5z"/>
	<path class="st1" d="M51.6,152.9c3.2-3.4,5.6-6.6,8.6-9.2c1.5-1.2,4-1.2,6-1.9c-0.4,2-0.4,4.5-1.5,6.1c-1.8,2.6-4.4,4.6-6.6,6.8   c-7.4,7.4-8.4,7.4-14.8-1c-1-1.2-0.4-3.7-0.7-5.6c1.8,0.4,3.5,0.5,5.1,1.2C49,150,49.8,151.2,51.6,152.9z"/>
	<path class="st1" d="M52,114.2c3.2-3.5,5.9-7,9.1-9.9c1.1-1.1,3.3-0.8,5.1-1.2c-0.2,1.9,0.4,4.3-0.6,5.6c-3.3,3.9-7.2,7.3-10.8,11   c-2.5,2.6-4.8,2.5-7.1-0.1c-1.1-1.1-2.6-2-3.3-3.4c-1-2-1.3-4.3-1.9-6.4c2.2,0.7,4.4,1.2,6.5,2C49.7,112.1,50.2,112.8,52,114.2z"/>
	<path class="st1" d="M92.7,154.8c-4.8,0-9.2,0.2-13.6-0.1c-1.3-0.1-2.6-1.9-3.8-2.8c1.2-1.1,2.6-3.3,3.8-3.3   C84,148.5,90.6,145.7,92.7,154.8z"/>
	<path class="st1" d="M88.8,109.5c-1.4,6.2-5.7,8.6-11.1,6.2c-1.1-0.5-2.4-2.5-2.2-3.4c0.2-1,2-2.5,3.3-2.6   C82.1,109.4,85.5,109.4,88.8,109.5z"/>
	<path class="st1" d="M88.8,23.5c-2.5,1.7-4.9,4.7-7.2,4.7c-2.1-0.1-5.6-3.5-5.7-5.6s3.3-5.6,5.4-5.8c2.4-0.3,5,2.6,7.6,4.1V23.5z"/>
	<path class="st1" d="M133.1,111.4c-10.6-1.1-17.6,4.1-21.2,13.8c-0.6,1.7-2.5,2.8-3.8,4.1c-0.4-1.9-1.5-4-1.1-5.6   c3.1-11.3,13.4-19,25.1-18.8c2.1,0.1,4.2,1.9,6.3,2.8L133.1,111.4z"/>
</g>
</svg>