<?xml version="1.0" encoding="UTF-8"?>
<!-- Generator: Adobe Illustrator 26.0.0, SVG Export Plug-In . SVG Version: 6.00 Build 0)  -->
<svg version="1.1" id="Capa_1" xmlns="http://www.w3.org/2000/svg" xmlns:xlink="http://www.w3.org/1999/xlink" x="0px" y="0px" viewBox="0 0 809 201" style="" xml:space="preserve">
<style type="text/css">
	.st0{enable-background:new    ;}
	.st1{fill:#FFFFFF;}
</style>
<g class="st0">
	<path class="st1" d="M253.9,77.7h7.3v42.5h-7.3v-18.9h-17.5v18.8h-7.3V77.7h7.3v17H254L253.9,77.7L253.9,77.7z"/>
	<path class="st1" d="M297.6,104.1c0,2.6-0.3,4.9-1.1,6.9c-0.7,2.1-1.6,3.9-3,5.4c-1.3,1.5-2.8,2.6-4.6,3.5   c-1.8,0.8-3.8,1.2-5.9,1.2c-2.1,0-4.1-0.4-5.9-1.2c-1.8-0.8-3.3-2-4.6-3.5c-1.3-1.5-2.3-3.2-3-5.4c-0.7-2.1-1.1-4.4-1.1-6.9   c0-2.6,0.3-4.9,1.1-6.9c0.7-2.1,1.7-3.8,3.1-5.3c1.3-1.5,2.8-2.6,4.6-3.4c1.8-0.8,3.7-1.2,5.9-1.2c2.1,0,4.1,0.4,5.9,1.2   c1.8,0.8,3.4,1.9,4.6,3.4c1.2,1.5,2.3,3.2,3,5.3C297.2,99.2,297.6,101.5,297.6,104.1z M290.4,104.1c0-3.2-0.7-5.7-2-7.6   c-1.3-1.9-3.1-2.8-5.4-2.8s-4.1,0.9-5.4,2.8c-1.3,1.9-2,4.4-2,7.6c0,3.2,0.7,5.8,2,7.7c1.3,1.9,3.1,2.8,5.4,2.8s4.1-0.9,5.4-2.8   C289.7,109.9,290.4,107.3,290.4,104.1z"/>
	<path class="st1" d="M321.7,94.8c-0.6-0.2-1.4-0.4-2.4-0.7c-1-0.2-2.2-0.3-3.5-0.3c-0.7,0-1.6,0.1-2.5,0.2   c-0.9,0.2-1.5,0.3-1.8,0.4v25.6h-7V89.6c1.3-0.5,3.1-1.1,5.1-1.5c2.1-0.5,4.3-0.7,6.8-0.7c0.5,0,1,0,1.6,0.1   c0.7,0.1,1.2,0.2,1.9,0.2c0.7,0.1,1.2,0.2,1.8,0.3c0.6,0.2,1.1,0.2,1.4,0.4L321.7,94.8z"/>
	<path class="st1" d="M337.5,87.3c2.3,0,4.3,0.3,5.9,0.9s2.9,1.5,3.8,2.6c1,1.1,1.6,2.5,2.1,4c0.4,1.6,0.6,3.3,0.6,5.2v19.5   c-1.1,0.2-2.7,0.6-4.9,0.9c-2.2,0.3-4.7,0.5-7.4,0.5c-1.8,0-3.5-0.2-5-0.6c-1.5-0.3-2.8-1-3.9-1.8c-1.1-0.8-1.9-1.9-2.5-3.2   c-0.6-1.3-0.9-2.9-0.9-4.9c0-1.8,0.3-3.4,1-4.6c0.7-1.2,1.6-2.3,2.8-3.1c1.2-0.8,2.5-1.4,4-1.7c1.6-0.3,3.1-0.5,4.8-0.5   c0.7,0,1.6,0.1,2.5,0.2c0.8,0.1,1.7,0.2,2.7,0.5v-1.2c0-0.8-0.1-1.6-0.3-2.5c-0.2-0.7-0.5-1.5-1-2.1s-1.2-1.1-1.9-1.4   c-0.8-0.3-1.8-0.5-3-0.5c-1.6,0-3.1,0.1-4.5,0.3c-1.3,0.2-2.5,0.5-3.3,0.8l-0.9-6c0.9-0.3,2.2-0.7,3.9-1   C333.7,87.4,335.5,87.3,337.5,87.3z M338,115c2.1,0,3.8-0.1,4.9-0.3v-8.2c-0.4-0.1-1-0.2-1.6-0.3c-0.7-0.1-1.6-0.2-2.5-0.2   c-0.7,0-1.6,0.1-2.4,0.2c-0.8,0.1-1.5,0.3-2.1,0.7c-0.7,0.3-1.2,0.8-1.6,1.4c-0.4,0.6-0.6,1.3-0.6,2.2c0,1.7,0.5,3,1.6,3.6   C334.8,114.6,336.2,115,338,115z"/>
	<path class="st1" d="M375.2,94.8c-0.6-0.2-1.4-0.4-2.4-0.7c-1-0.2-2.2-0.3-3.5-0.3c-0.7,0-1.6,0.1-2.5,0.2   c-0.9,0.2-1.5,0.3-1.8,0.4v25.6h-7V89.6c1.3-0.5,3.1-1.1,5.1-1.5c2.1-0.5,4.3-0.7,6.8-0.7c0.5,0,1,0,1.6,0.1s1.2,0.2,1.9,0.2   c0.7,0.1,1.2,0.2,1.8,0.3c0.6,0.2,1.1,0.2,1.4,0.4L375.2,94.8z"/>
	<path class="st1" d="M388.7,78.7c0,1.4-0.4,2.5-1.3,3.3c-0.8,0.8-1.9,1.2-3.1,1.2c-1.2,0-2.2-0.4-3.1-1.2c-0.8-0.8-1.3-1.9-1.3-3.3   c0-1.4,0.4-2.6,1.3-3.4c0.8-0.8,1.9-1.2,3.1-1.2s2.1,0.4,3.1,1.2C388.3,76.1,388.7,77.3,388.7,78.7z M387.9,120.2h-7V88.1h7V120.2z   "/>
	<path class="st1" d="M424,104.1c0,2.6-0.3,4.9-1.1,6.9c-0.7,2.1-1.6,3.9-3,5.4c-1.3,1.5-2.8,2.6-4.6,3.5c-1.8,0.8-3.8,1.2-5.9,1.2   s-4.1-0.4-5.9-1.2c-1.8-0.8-3.3-2-4.6-3.5c-1.3-1.5-2.3-3.2-3-5.4c-0.7-2.1-1.1-4.4-1.1-6.9c0-2.6,0.3-4.9,1.1-6.9   c0.7-2.1,1.7-3.8,3.1-5.3c1.3-1.5,2.8-2.6,4.6-3.4c1.8-0.8,3.7-1.2,5.9-1.2s4.1,0.4,5.9,1.2c1.8,0.8,3.4,1.9,4.6,3.4   c1.2,1.5,2.3,3.2,3,5.3C423.6,99.2,424,101.5,424,104.1z M416.7,104.1c0-3.2-0.7-5.7-2-7.6c-1.3-1.9-3.1-2.8-5.4-2.8   c-2.3,0-4.1,0.9-5.4,2.8c-1.3,1.9-2,4.4-2,7.6c0,3.2,0.7,5.8,2,7.7c1.3,1.9,3.1,2.8,5.4,2.8c2.3,0,4.1-0.9,5.4-2.8   C416.1,109.9,416.7,107.3,416.7,104.1z"/>
	<path class="st1" d="M469.5,119.2c-1.4,0.4-3.1,0.8-5.3,1.2c-2.1,0.3-4.4,0.6-6.7,0.6c-2.4,0-4.5-0.4-6.4-1.2   c-1.9-0.7-3.5-1.9-4.9-3.4c-1.3-1.5-2.4-3.2-3.1-5.3c-0.7-2.1-1.1-4.4-1.1-6.9c0-2.6,0.3-4.9,0.9-6.9c0.6-2.1,1.5-3.8,2.6-5.3   c1.2-1.5,2.6-2.6,4.3-3.4c1.6-0.8,3.6-1.2,5.8-1.2c1.5,0,2.8,0.2,3.9,0.6c1.2,0.3,2.1,0.7,2.9,1.2V73.8l7-1.2V119.2z M449.3,104   c0,3.3,0.7,5.9,2.2,7.7c1.5,1.9,3.5,2.8,6.1,2.8c1.2,0,2.1-0.1,2.9-0.2s1.5-0.2,2-0.3V95.6c-0.7-0.4-1.5-0.9-2.5-1.2   c-1-0.4-2.1-0.6-3.3-0.6c-2.6,0-4.5,0.9-5.6,2.7C449.9,98.4,449.3,100.9,449.3,104z"/>
	<path class="st1" d="M476.3,104.3c0-2.8,0.4-5.3,1.2-7.4c0.8-2.1,1.8-3.9,3.1-5.3c1.3-1.4,2.8-2.5,4.5-3.2c1.7-0.7,3.5-1.1,5.3-1.1   c4.2,0,7.5,1.4,9.8,4.1c2.3,2.7,3.5,6.8,3.5,12.3c0,0.4,0,0.9,0,1.4s-0.1,1-0.1,1.4h-20.1c0.2,2.6,1.1,4.5,2.6,5.9   c1.6,1.4,3.8,2.1,6.7,2.1c1.7,0,3.3-0.2,4.7-0.5c1.4-0.3,2.6-0.7,3.4-1.1l0.9,6.1c-0.4,0.2-0.9,0.4-1.6,0.7   c-0.7,0.2-1.5,0.4-2.3,0.6c-0.9,0.2-1.8,0.3-2.8,0.5c-1,0.1-2.1,0.2-3.1,0.2c-2.6,0-5-0.4-7-1.2c-2-0.8-3.6-2-4.9-3.5   c-1.3-1.5-2.2-3.2-2.9-5.3C476.6,109,476.3,106.7,476.3,104.3z M496.7,101c0-1-0.2-2-0.4-2.9c-0.2-0.9-0.7-1.7-1.2-2.4   c-0.5-0.7-1.2-1.2-1.9-1.6c-0.7-0.4-1.6-0.6-2.7-0.6s-2.1,0.2-2.9,0.7c-0.8,0.4-1.5,1-2.1,1.6s-1,1.5-1.3,2.4   c-0.3,0.9-0.5,1.8-0.7,2.7C483.6,101,496.7,101,496.7,101z"/>
	<path class="st1" d="M522,104.2c0-2.4,0.3-4.6,1.1-6.7c0.7-2.1,1.7-3.9,3-5.4c1.3-1.5,2.9-2.7,4.8-3.5c1.9-0.8,4-1.3,6.3-1.3   c2.9,0,5.6,0.6,8.2,1.6l-1.5,6.1c-0.8-0.3-1.7-0.7-2.8-0.9c-1-0.2-2.1-0.3-3.3-0.3c-2.7,0-4.9,0.9-6.3,2.7   c-1.4,1.8-2.1,4.4-2.1,7.7c0,3.2,0.7,5.7,2.1,7.6c1.3,1.9,3.6,2.8,6.8,2.8c1.2,0,2.4-0.1,3.5-0.3c1.2-0.2,2.1-0.6,3.1-0.9l1,6.1   c-0.7,0.4-2,0.7-3.5,1.1c-1.6,0.3-3.2,0.5-4.9,0.5c-2.6,0-4.9-0.4-6.8-1.2c-1.9-0.8-3.5-2-4.8-3.5c-1.2-1.5-2.2-3.3-2.8-5.4   C522.4,108.8,522,106.6,522,104.2z"/>
	<path class="st1" d="M561.3,120.8c-2.1,0-3.8-0.2-5.2-0.7c-1.4-0.4-2.5-1.1-3.3-1.9c-0.8-0.8-1.4-1.9-1.7-3.1   c-0.3-1.2-0.5-2.6-0.5-4.3V73.8l7-1.2v36.7c0,0.9,0.1,1.6,0.2,2.3c0.2,0.6,0.4,1.2,0.7,1.6s0.8,0.7,1.4,1c0.6,0.2,1.4,0.4,2.3,0.5   L561.3,120.8z"/>
	<path class="st1" d="M577.6,87.3c2.3,0,4.3,0.3,5.9,0.9s2.9,1.5,3.8,2.6c1,1.1,1.6,2.5,2.1,4c0.4,1.6,0.6,3.3,0.6,5.2v19.5   c-1.1,0.2-2.7,0.6-4.9,0.9c-2.2,0.3-4.7,0.5-7.4,0.5c-1.8,0-3.5-0.2-5-0.6c-1.5-0.3-2.8-1-3.9-1.8c-1.1-0.8-1.9-1.9-2.5-3.2   c-0.6-1.3-0.9-2.9-0.9-4.9c0-1.8,0.3-3.4,1-4.6s1.6-2.3,2.8-3.1c1.2-0.8,2.5-1.4,4-1.7c1.6-0.3,3.1-0.5,4.8-0.5   c0.7,0,1.6,0.1,2.5,0.2c0.8,0.1,1.7,0.2,2.7,0.5v-1.2c0-0.8-0.1-1.6-0.3-2.5c-0.2-0.7-0.5-1.5-1-2.1s-1.2-1.1-1.9-1.4   c-0.8-0.3-1.8-0.5-3-0.5c-1.6,0-3.1,0.1-4.5,0.3c-1.3,0.2-2.5,0.5-3.3,0.8l-0.9-6c0.9-0.3,2.2-0.7,3.9-1   C573.8,87.4,575.6,87.3,577.6,87.3z M578.2,115c2.1,0,3.8-0.1,4.9-0.3v-8.2c-0.4-0.1-1-0.2-1.6-0.3c-0.7-0.1-1.6-0.2-2.5-0.2   c-0.7,0-1.6,0.1-2.4,0.2s-1.5,0.3-2.1,0.7c-0.7,0.3-1.2,0.8-1.6,1.4c-0.4,0.6-0.6,1.3-0.6,2.2c0,1.7,0.5,3,1.6,3.6   C575,114.6,576.4,115,578.2,115z"/>
	<path class="st1" d="M605.6,114.8c1.9,0,3.2-0.2,4-0.7c0.8-0.5,1.3-1.2,1.3-2.4c0-1.1-0.5-2-1.4-2.6c-0.9-0.7-2.4-1.5-4.5-2.3   c-1.3-0.5-2.5-1-3.5-1.6c-1.1-0.6-2-1.2-2.8-1.9c-0.7-0.7-1.4-1.6-1.8-2.6c-0.4-1.1-0.7-2.3-0.7-3.8c0-3,1-5.3,3.1-6.9   c2.1-1.7,4.9-2.6,8.4-2.6c1.8,0,3.5,0.2,5.1,0.5c1.6,0.3,2.9,0.7,3.6,1l-1.3,6c-0.7-0.3-1.7-0.7-3-1c-1.2-0.3-2.6-0.5-4.2-0.5   c-1.4,0-2.6,0.2-3.5,0.7c-0.9,0.5-1.3,1.3-1.3,2.4c0,0.5,0.1,1,0.2,1.4c0.2,0.4,0.5,0.8,0.9,1.2c0.4,0.3,1,0.7,1.6,1.1   c0.7,0.3,1.6,0.7,2.6,1.1c1.6,0.7,3.1,1.3,4.3,1.9c1.2,0.7,2.1,1.3,2.9,2.1c0.7,0.8,1.3,1.7,1.6,2.7c0.3,1,0.5,2.2,0.5,3.7   c0,3.1-1.1,5.4-3.2,6.9s-5.2,2.4-9.2,2.4c-2.6,0-4.9-0.2-6.4-0.7c-1.6-0.5-2.8-0.8-3.5-1.2l1.2-6.2c1.1,0.4,2.3,0.9,3.8,1.3   C602.1,114.7,603.8,114.8,605.6,114.8z"/>
	<path class="st1" d="M622.4,104.3c0-2.8,0.4-5.3,1.2-7.4c0.8-2.1,1.8-3.9,3.1-5.3c1.3-1.4,2.8-2.5,4.5-3.2c1.7-0.7,3.5-1.1,5.3-1.1   c4.2,0,7.5,1.4,9.8,4.1c2.3,2.7,3.5,6.8,3.5,12.3c0,0.4,0,0.9,0,1.4s-0.1,1-0.1,1.4h-20.1c0.2,2.6,1.1,4.5,2.6,5.9   c1.6,1.4,3.8,2.1,6.7,2.1c1.7,0,3.3-0.2,4.7-0.5c1.4-0.3,2.6-0.7,3.4-1.1l0.9,6.1c-0.4,0.2-0.9,0.4-1.6,0.7   c-0.7,0.2-1.5,0.4-2.3,0.6c-0.9,0.2-1.8,0.3-2.8,0.5c-1,0.1-2.1,0.2-3.1,0.2c-2.6,0-5-0.4-7-1.2c-2-0.8-3.6-2-4.9-3.5   c-1.3-1.5-2.2-3.2-2.9-5.3C622.7,109,622.4,106.7,622.4,104.3z M642.8,101c0-1-0.2-2-0.4-2.9c-0.2-0.9-0.7-1.7-1.2-2.4   c-0.5-0.7-1.2-1.2-1.9-1.6c-0.7-0.4-1.6-0.6-2.7-0.6s-2.1,0.2-2.9,0.7s-1.5,1-2.1,1.6s-1,1.5-1.3,2.4c-0.3,0.9-0.5,1.8-0.7,2.7   C629.7,101,642.8,101,642.8,101z"/>
</g>
<g>
	<path class="st1" d="M128.2,25.1c0-2.1,0-4.2,0-6.2c0.1-3.1,1.9-5.1,4.8-5.1s4.8,2,4.8,5.1c0,2,0,4.1,0,6.4h2.5   c5.3,0,10.7,0,16.1,0c7.9,0,13.6,5.6,13.6,13.6c0,18.2,0,36.4,0,54.6v2l-7.1-1.6V72.1H10.5c0,0.9-0.1,1.6-0.1,2.4   c0,27.6,0,55.3,0,82.9c0,5.1,2.2,7.4,7.4,7.4c27.2,0,54.6,0,81.8-0.1c1.6,0,2.5,0.4,3,2c0.7,1.7,1.4,3.5,2.1,5.1h-2.5   c-28.2,0-56.3-0.2-84.4,0.1C8.5,172.1,3,165.3,3,157.3c0.2-39,0.1-78,0-117C3,34.6,4.6,29.8,9.9,27c2.1-1.1,4.4-1.6,6.7-1.7   c5.3-0.2,10.7-0.1,16.1-0.1h2.6c0-2.2,0-4.3,0-6.3c0.1-3.1,1.9-5.2,4.8-5.2c2.8,0,4.8,2,4.8,5.3c0,1.9,0,4,0,6.1L128.2,25.1z    M35.3,32.4c-6.2,0-12,0-17.9,0c-4.8,0-7,2.3-7,7.1c0,7.8,0,15.5,0,23.3c0,0.7,0.1,1.3,0.2,2h152.1c0-0.7,0.1-1.3,0.1-1.8   c0-7.9,0-15.7,0-23.6c0-4.7-2.5-7-7.2-7h-17.8c0,2.6,0,4.8,0,7.1c0,3.5-1.8,5.6-4.8,5.6s-4.8-2.1-4.8-5.6c0-2.3,0-4.7,0-7H45.1   C45,32.7,45,32.8,44.9,33c0,2.2,0,4.4,0,6.6c0,3.3-1.9,5.3-4.8,5.3c-2.8,0-4.8-2-4.8-5.4C35.3,37.4,35.3,35.1,35.3,32.4z"/>
	<path class="st1" d="M153.1,105.6c22.9,0,41.5,18.5,41.6,41.5c0,0.1,0,0.2,0,0.3c0,23-18.7,41.3-42,41.3   c-22.6,0-41.1-18.8-41.1-41.6C111.5,124.2,130.2,105.6,153.1,105.6z M118.7,147.1c-0.1,19,15.3,34.4,34.3,34.5s34.4-15.3,34.5-34.3   s-15.2-34.4-34.2-34.5C134.3,112.7,118.8,128.1,118.7,147.1z"/>
	<path class="st1" d="M156.3,137.7c-1.7,5.5,1.4,10.2,6.3,14.3c2.9,2.6,5.6,5.3,8.2,8.1c1.9,1.9,2,4.1,0.6,5.6   c-1.5,1.6-3.6,1.5-5.6-0.5c-5-5-10.2-10.1-15.2-15.3c-0.9-1-1.4-2.1-1.5-3.5c-0.1-5.8-0.1-11.7-0.1-17.5c0-2.5,1.4-4.2,3.5-4.2   s3.6,1.6,3.7,4.3C156.4,131.4,156.3,134,156.3,137.7z"/>
</g>
</svg>