<?xml version="1.0" encoding="UTF-8"?>
<!-- Generator: Adobe Illustrator 26.0.0, SVG Export Plug-In . SVG Version: 6.00 Build 0)  -->
<svg version="1.1" id="Capa_1" xmlns="http://www.w3.org/2000/svg" xmlns:xlink="http://www.w3.org/1999/xlink" x="0px" y="0px" viewBox="0 0 429 201" style="" xml:space="preserve">
<style type="text/css">
	.st0{enable-background:new    ;}
	.st1{fill:#FFFFFF;}
</style>
<g class="st0">
	<path class="st1" d="M257.3,126.6c2.9,0,5-0.5,6.3-1.5s2-2.4,2-4.2c0-1.1-0.2-2-0.7-2.8s-1.1-1.5-1.9-2.1s-1.9-1.2-3-1.7   c-1.2-0.5-2.6-1.1-4.1-1.6c-1.5-0.6-3-1.2-4.5-1.8c-1.4-0.7-2.7-1.5-3.8-2.5s-2-2.2-2.6-3.5c-0.7-1.4-1-3-1-4.9   c0-4,1.4-7.2,4.2-9.5s6.6-3.4,11.4-3.4c2.8,0,5.2,0.3,7.4,0.9c2.2,0.6,3.9,1.3,5.1,2l-2.5,6.5c-1.5-0.8-3-1.4-4.8-1.9   c-1.7-0.4-3.5-0.6-5.4-0.6c-2.2,0-3.9,0.4-5.1,1.3c-1.2,0.9-1.8,2.2-1.8,3.8c0,1,0.2,1.8,0.6,2.5c0.4,0.7,1,1.3,1.7,1.9   s1.6,1.1,2.6,1.5c1,0.5,2.1,0.9,3.3,1.3c2.1,0.8,4,1.6,5.6,2.3c1.6,0.8,3,1.7,4.2,2.8c1.1,1.1,2,2.4,2.6,3.8s0.9,3.3,0.9,5.4   c0,4-1.4,7.1-4.3,9.3c-2.9,2.2-7,3.3-12.5,3.3c-1.8,0-3.5-0.1-5-0.4c-1.5-0.2-2.9-0.5-4-0.9c-1.2-0.3-2.2-0.7-3-1.1   c-0.9-0.4-1.5-0.7-2.1-1l2.4-6.6c1.2,0.6,2.7,1.3,4.7,1.9C252.1,126.2,254.5,126.6,257.3,126.6z"/>
	<path class="st1" d="M293.2,85.3l-10.5,10.1l-3.8-3.5l9.4-11.2L293.2,85.3z M287.9,132.6h-7.8V99.1h7.8V132.6z"/>
	<path class="st1" d="M308.8,133.2c-2.3,0-4.2-0.3-5.7-0.8s-2.7-1.1-3.6-2s-1.5-2-1.9-3.3s-0.5-2.8-0.5-4.5V84l7.8-1.3v38.4   c0,0.9,0.1,1.7,0.2,2.4c0.1,0.6,0.4,1.2,0.8,1.6c0.4,0.4,0.9,0.8,1.6,1s1.5,0.4,2.5,0.5L308.8,133.2z"/>
	<path class="st1" d="M326.7,98.2c2.6,0,4.7,0.3,6.5,1c1.8,0.6,3.2,1.5,4.2,2.7s1.8,2.6,2.2,4.2c0.4,1.6,0.7,3.5,0.7,5.4v20.3   c-1.2,0.3-3,0.6-5.4,0.9c-2.4,0.4-5.1,0.5-8.2,0.5c-2,0-3.8-0.2-5.5-0.6s-3.1-1-4.3-1.9s-2.1-2-2.8-3.3c-0.7-1.4-1-3.1-1-5.1   c0-1.9,0.4-3.5,1.1-4.9c0.7-1.3,1.8-2.4,3-3.2c1.3-0.8,2.8-1.4,4.5-1.8c1.7-0.4,3.5-0.5,5.3-0.5c0.9,0,1.8,0.1,2.7,0.2   c0.9,0.1,1.9,0.3,3,0.5v-1.3c0-0.9-0.1-1.8-0.3-2.6c-0.2-0.8-0.6-1.5-1.1-2.1s-1.2-1.1-2.1-1.4s-2-0.5-3.3-0.5   c-1.8,0-3.4,0.1-4.9,0.4s-2.7,0.6-3.7,0.9l-1-6.3c1-0.3,2.4-0.7,4.3-1C322.6,98.4,324.6,98.2,326.7,98.2z M327.4,127.1   c2.4,0,4.2-0.1,5.5-0.4v-8.6c-0.4-0.1-1-0.3-1.9-0.4c-0.8-0.1-1.7-0.2-2.7-0.2c-0.9,0-1.7,0.1-2.6,0.2c-0.9,0.1-1.7,0.4-2.4,0.7   c-0.7,0.3-1.3,0.8-1.7,1.4c-0.4,0.6-0.6,1.4-0.6,2.3c0,1.8,0.6,3.1,1.7,3.8C323.8,126.8,325.4,127.1,327.4,127.1z"/>
	<path class="st1" d="M379.4,115.8c0,2.7-0.4,5.1-1.2,7.3c-0.8,2.2-1.9,4-3.4,5.5s-3.3,2.7-5.4,3.5s-4.5,1.2-7.1,1.2s-5-0.2-7.3-0.6   c-2.3-0.4-4.3-0.8-5.8-1.3V83.9l7.8-1.3V100c0.9-0.5,2-0.9,3.3-1.3s2.7-0.6,4.3-0.6c2.4,0,4.5,0.4,6.3,1.3c1.9,0.8,3.4,2,4.7,3.6   c1.2,1.5,2.2,3.4,2.9,5.5C379,110.8,379.4,113.2,379.4,115.8z M371.4,115.7c0-3.3-0.7-5.9-2-7.8c-1.3-1.9-3.4-2.9-6.2-2.9   c-1.3,0-2.5,0.2-3.6,0.6s-2,0.8-2.7,1.3v19.3c0.6,0.1,1.3,0.2,2.1,0.4c0.9,0.1,1.9,0.2,3.2,0.2c2.9,0,5.1-1,6.7-2.9   C370.6,121.8,371.4,119.1,371.4,115.7z"/>
	<path class="st1" d="M417.1,115.8c0,2.7-0.4,5.1-1.2,7.2c-0.8,2.2-1.9,4-3.3,5.6s-3.1,2.7-5.1,3.6s-4.2,1.3-6.6,1.3   s-4.6-0.4-6.5-1.3c-2-0.9-3.7-2.1-5.1-3.6s-2.5-3.4-3.3-5.6c-0.8-2.2-1.2-4.6-1.2-7.2s0.4-5.1,1.2-7.2c0.8-2.2,1.9-4,3.3-5.5   s3.1-2.7,5.1-3.6c2-0.8,4.1-1.3,6.5-1.3s4.5,0.4,6.5,1.3c2,0.8,3.7,2,5.1,3.6c1.4,1.5,2.5,3.4,3.3,5.5   C416.7,110.7,417.1,113.1,417.1,115.8z M409.1,115.8c0-3.3-0.7-6-2.1-7.9s-3.4-2.9-6-2.9s-4.6,1-6,2.9s-2.1,4.6-2.1,7.9   c0,3.4,0.7,6.1,2.1,8s3.4,3,6,3s4.6-1,6-3S409.1,119.2,409.1,115.8z"/>
</g>
<g>
	<path class="st1" d="M51.2,28.4c-1.3-8.2,2.7-9.9,9-9.1c5.3,0.7,8.9-0.1,11.3-6.4c3.2-8.5,10.7-12.5,20-12.5s15.9,4.6,20,12.8   c0.9,1.9,1.5,3.8,2.4,6.1h6.9c9.4,0,9.4,0,11.4,9.1c6.3,0,12.8,0.2,19.2,0c4.3-0.1,5.9,1.7,5.8,5.9c-0.1,53.4-0.1,106.7,0.1,160.1   c0,4.8-1.9,6.1-6.4,6.1c-39.8-0.1-79.5-0.1-119.3,0c-5,0-6.6-1.9-6.6-6.6c0.1-53,0.1-105.9,0-158.8c0-5.4,2-7,7.1-6.7   C38.2,28.7,44.2,28.4,51.2,28.4z M32.3,35.6V193h117.8V35.7h-18c-0.3,0.5-0.5,1-0.7,1.6c-0.1,0.8-0.2,1.7-0.2,2.5   c-0.3,8.9-0.3,8.9-9,8.9H65.7c-13,0-13,0-14.9-12.2c0-0.2-0.3-0.3-0.7-0.8L32.3,35.6z M124.1,26c-2.7,0-5-0.2-7.3,0   c-5.8,0.4-10.3,0.1-11.1-7.7c-0.7-6.5-7.1-10.7-13.5-11.2c-6.4-0.4-14.2,3.1-14.8,9.2c-1.2,11-8,10.1-15.4,9.7   c-1.2,0-2.5,0.2-3.6,0.4v15.1h65.6V26z"/>
	<path class="st1" d="M92.8,115.2c11.3,0,22.7-0.3,33.9,0.2c2.9,0.1,5.7,2.1,8.5,3.3c-2.8,1.2-5.7,3.3-8.6,3.4c-23,0.3-46,0.3-69,0   c-2.8,0-5.7-2.2-8.4-3.4c2.8-1.2,5.6-3.2,8.5-3.3C69.4,115,81.1,115.2,92.8,115.2z"/>
	<path class="st1" d="M91.4,162.9c-11,0-22,0.3-32.9-0.2c-3.2-0.1-6.2-2.2-9.3-3.4c2.9-1.1,5.8-3.1,8.8-3.1c23-0.3,46.1-0.3,69,0   c2.8,0,5.6,2.2,8.3,3.4c-2.9,1.1-5.8,3-8.9,3.1C114.8,163.1,103.1,162.9,91.4,162.9z"/>
	<path class="st1" d="M91.7,74.5c11.7,0,23.4-0.2,35,0.2c2.9,0.1,5.8,2,8.6,3.2c-2.8,1.2-5.7,3.2-8.6,3.3c-23,0.3-46.1,0.3-69,0   c-2.9,0-5.7-2.1-8.6-3.3c2.8-1.2,5.6-3.1,8.6-3.3C69,74.2,80.3,74.5,91.7,74.5L91.7,74.5z"/>
	<path class="st1" d="M89.6,30.7c-1.6-2.5-4.3-4.8-4.7-7.4c-0.4-3.9,2.6-7.2,6.6-6.1c2.5,0.6,5.9,4,5.9,6.1c0.1,2.5-3.2,5-5,7.5   L89.6,30.7z"/>
</g>
</svg>